<?xml version="1.0" standalone="no"?>
<!DOCTYPE svg PUBLIC "-//W3C//DTD SVG 1.1//EN" "http://www.w3.org/Graphics/SVG/1.1/DTD/svg11.dtd">
<svg xmlns="http://www.w3.org/2000/svg" viewBox="0 0 1117.73 756.01" data-name="Camada 3" id="Camada_3" width="1117.72998046875" height="756.010009765625"><defs><style>.cls-1{fill:#17d4e6;}</style></defs><path transform="translate(-2203.2 -682.5)" d="M3229.25,682.5H2732.08a248.86,248.86,0,0,0-150.7,53h0l-6.35,5.14,0,0-335.24,271.22c-.6.47-1.2,1-1.79,1.44a95.51,95.51,0,0,0,0,147.38c.59.49,1.19,1,1.79,1.44L2536.28,1402l0,0,5.25,4.25.5.39A154.53,154.53,0,0,0,2741.4,1397l549.78-549.78.14-.13,3.24-3.24.13-.14a95.5,95.5,0,0,0-65.44-161.17ZM3068.86,937.1l-.08.09-2,2-.08.08-335.17,335.17-4.66,4.65a95.5,95.5,0,0,1-123.21,6l-.31-.25-3.25-2.62v0l-183.3-148.29c-.37-.29-.74-.58-1.1-.89a59,59,0,0,1,0-91.09c.36-.31.73-.6,1.1-.89L2624,873.42h0l3.92-3.18h0a153.84,153.84,0,0,1,93.15-32.75h307.31a59,59,0,0,1,40.45,99.62Z" class="cls-1"/></svg>